<mxfile host="app.diagrams.net" modified="2024-03-19T18:35:43.006Z" agent="Mozilla/5.0 (Macintosh; Intel Mac OS X 10_15_7) AppleWebKit/537.36 (KHTML, like Gecko) Chrome/122.0.0.0 Safari/537.36" etag="oqqVa3dlKHoG27mZwyhT" version="24.0.7" type="device">
  <diagram name="Page-1" id="1WMKX6EsftJppxVF4mOy">
    <mxGraphModel dx="2220" dy="1895" grid="1" gridSize="10" guides="1" tooltips="1" connect="1" arrows="1" fold="1" page="1" pageScale="1" pageWidth="827" pageHeight="1169" math="0" shadow="0">
      <root>
        <mxCell id="0" />
        <mxCell id="1" parent="0" />
        <mxCell id="BzquAZeQ5Npl7j1pz51S-31" value="" style="rounded=0;whiteSpace=wrap;html=1;fillColor=#6d8764;strokeColor=#3A5431;fontColor=#ffffff;" parent="1" vertex="1">
          <mxGeometry x="-160" y="-10" width="1250" height="540" as="geometry" />
        </mxCell>
        <mxCell id="BzquAZeQ5Npl7j1pz51S-1" value="" style="rounded=0;whiteSpace=wrap;html=1;" parent="1" vertex="1">
          <mxGeometry x="260" y="137" width="370" height="262" as="geometry" />
        </mxCell>
        <mxCell id="BzquAZeQ5Npl7j1pz51S-2" value="Kafka Cluster" style="text;html=1;align=center;verticalAlign=middle;resizable=0;points=[];autosize=1;strokeColor=none;fillColor=none;fontSize=16;fontStyle=1" parent="1" vertex="1">
          <mxGeometry x="385" y="110" width="120" height="30" as="geometry" />
        </mxCell>
        <mxCell id="BzquAZeQ5Npl7j1pz51S-3" value="" style="rounded=0;whiteSpace=wrap;html=1;fillColor=#f8cecc;strokeColor=#b85450;" parent="1" vertex="1">
          <mxGeometry x="300" y="190" width="290" height="150" as="geometry" />
        </mxCell>
        <mxCell id="BzquAZeQ5Npl7j1pz51S-5" value="&lt;b&gt;&lt;font style=&quot;font-size: 21px;&quot;&gt;web-gateway&lt;/font&gt;&lt;/b&gt;&lt;div&gt;&lt;b&gt;&lt;font style=&quot;font-size: 14px;&quot;&gt;&lt;br&gt;&lt;/font&gt;&lt;/b&gt;&lt;/div&gt;&lt;div&gt;&lt;font style=&quot;font-size: 14px;&quot;&gt;All customers interactions through web app and mobile are handled here&lt;/font&gt;&lt;/div&gt;" style="rounded=0;whiteSpace=wrap;html=1;fillColor=#f8cecc;strokeColor=#b85450;" parent="1" vertex="1">
          <mxGeometry x="-130" y="223" width="230" height="90" as="geometry" />
        </mxCell>
        <mxCell id="BzquAZeQ5Npl7j1pz51S-7" value="" style="strokeColor=#dddddd;shadow=1;strokeWidth=1;rounded=1;absoluteArcSize=1;arcSize=2;" parent="1" vertex="1">
          <mxGeometry x="-390" y="246" width="150" height="44" as="geometry" />
        </mxCell>
        <mxCell id="BzquAZeQ5Npl7j1pz51S-8" value="Frontend&#xa;Platform Services" style="sketch=0;dashed=0;connectable=0;html=1;fillColor=#757575;strokeColor=none;shape=mxgraph.gcp2.frontend_platform_services;part=1;labelPosition=right;verticalLabelPosition=middle;align=left;verticalAlign=middle;spacingLeft=5;fontSize=12;" parent="BzquAZeQ5Npl7j1pz51S-7" vertex="1">
          <mxGeometry y="0.5" width="32" height="32" relative="1" as="geometry">
            <mxPoint x="5" y="-16" as="offset" />
          </mxGeometry>
        </mxCell>
        <mxCell id="BzquAZeQ5Npl7j1pz51S-9" value="" style="endArrow=none;dashed=1;html=1;dashPattern=1 3;strokeWidth=2;rounded=0;entryX=1;entryY=0.5;entryDx=0;entryDy=0;entryPerimeter=0;exitX=0;exitY=0.5;exitDx=0;exitDy=0;" parent="1" source="BzquAZeQ5Npl7j1pz51S-7" target="BzquAZeQ5Npl7j1pz51S-10" edge="1">
          <mxGeometry width="50" height="50" relative="1" as="geometry">
            <mxPoint x="-210" y="303" as="sourcePoint" />
            <mxPoint x="-450.99199999999996" y="243" as="targetPoint" />
          </mxGeometry>
        </mxCell>
        <mxCell id="BzquAZeQ5Npl7j1pz51S-10" value="" style="verticalLabelPosition=bottom;aspect=fixed;html=1;shape=mxgraph.salesforce.web;" parent="1" vertex="1">
          <mxGeometry x="-530" y="244.3" width="60" height="47.400000000000006" as="geometry" />
        </mxCell>
        <mxCell id="BzquAZeQ5Npl7j1pz51S-11" value="" style="endArrow=classic;html=1;rounded=0;exitX=1;exitY=0.5;exitDx=0;exitDy=0;entryX=0;entryY=0.5;entryDx=0;entryDy=0;" parent="1" source="BzquAZeQ5Npl7j1pz51S-7" target="BzquAZeQ5Npl7j1pz51S-5" edge="1">
          <mxGeometry width="50" height="50" relative="1" as="geometry">
            <mxPoint x="-70" y="270" as="sourcePoint" />
            <mxPoint x="-20" y="220" as="targetPoint" />
          </mxGeometry>
        </mxCell>
        <mxCell id="BzquAZeQ5Npl7j1pz51S-13" value="&lt;b&gt;&lt;font style=&quot;font-size: 15px;&quot;&gt;Broker 1&lt;/font&gt;&lt;/b&gt;" style="text;html=1;align=center;verticalAlign=middle;whiteSpace=wrap;rounded=0;" parent="1" vertex="1">
          <mxGeometry x="407" y="200" width="75" height="30" as="geometry" />
        </mxCell>
        <mxCell id="BzquAZeQ5Npl7j1pz51S-14" value="Topic TRANSFER" style="rounded=1;whiteSpace=wrap;html=1;fillColor=#0050ef;strokeColor=#001DBC;fontColor=#ffffff;" parent="1" vertex="1">
          <mxGeometry x="329.5" y="232" width="230" height="74" as="geometry" />
        </mxCell>
        <mxCell id="BzquAZeQ5Npl7j1pz51S-18" value="" style="shape=flexArrow;endArrow=classic;html=1;rounded=0;exitX=1;exitY=0.5;exitDx=0;exitDy=0;entryX=0;entryY=0.5;entryDx=0;entryDy=0;" parent="1" source="BzquAZeQ5Npl7j1pz51S-5" target="BzquAZeQ5Npl7j1pz51S-1" edge="1">
          <mxGeometry width="50" height="50" relative="1" as="geometry">
            <mxPoint x="230" y="360" as="sourcePoint" />
            <mxPoint x="190" y="270" as="targetPoint" />
          </mxGeometry>
        </mxCell>
        <mxCell id="BzquAZeQ5Npl7j1pz51S-22" value="Produce&lt;div&gt;Message&lt;/div&gt;" style="text;html=1;align=center;verticalAlign=middle;resizable=0;points=[];autosize=1;strokeColor=none;fillColor=none;fontStyle=1" parent="1" vertex="1">
          <mxGeometry x="147.5" y="273" width="70" height="40" as="geometry" />
        </mxCell>
        <mxCell id="BzquAZeQ5Npl7j1pz51S-23" value="&lt;b&gt;&lt;font style=&quot;font-size: 21px;&quot;&gt;funds-processor&lt;/font&gt;&lt;/b&gt;&lt;div&gt;&lt;b&gt;&lt;font style=&quot;font-size: 14px;&quot;&gt;&lt;br&gt;&lt;/font&gt;&lt;/b&gt;&lt;/div&gt;&lt;div&gt;&lt;font style=&quot;font-size: 14px;&quot;&gt;Process withdrawal and deposit action on accounts&lt;/font&gt;&lt;/div&gt;" style="rounded=0;whiteSpace=wrap;html=1;fillColor=#f8cecc;strokeColor=#b85450;" parent="1" vertex="1">
          <mxGeometry x="810" y="223" width="230" height="90" as="geometry" />
        </mxCell>
        <mxCell id="BzquAZeQ5Npl7j1pz51S-25" value="" style="shape=flexArrow;endArrow=classic;html=1;rounded=0;exitX=0;exitY=0.5;exitDx=0;exitDy=0;entryX=1;entryY=0.5;entryDx=0;entryDy=0;" parent="1" source="BzquAZeQ5Npl7j1pz51S-23" target="BzquAZeQ5Npl7j1pz51S-1" edge="1">
          <mxGeometry width="50" height="50" relative="1" as="geometry">
            <mxPoint x="790" y="365" as="sourcePoint" />
            <mxPoint x="650" y="365" as="targetPoint" />
          </mxGeometry>
        </mxCell>
        <mxCell id="BzquAZeQ5Npl7j1pz51S-26" value="" style="sketch=0;pointerEvents=1;shadow=0;dashed=0;html=1;strokeColor=none;fillColor=#04339f;labelPosition=center;verticalLabelPosition=bottom;verticalAlign=top;align=center;outlineConnect=0;shape=mxgraph.veeam2.letter;fontSize=13;aspect=fixed;" parent="1" vertex="1">
          <mxGeometry x="700" y="223" width="45" height="32.07" as="geometry" />
        </mxCell>
        <mxCell id="BzquAZeQ5Npl7j1pz51S-27" value="Consume&lt;div&gt;Message&lt;/div&gt;" style="text;html=1;align=center;verticalAlign=middle;resizable=0;points=[];autosize=1;strokeColor=none;fillColor=none;fontStyle=1" parent="1" vertex="1">
          <mxGeometry x="687.5" y="273" width="70" height="40" as="geometry" />
        </mxCell>
        <mxCell id="BzquAZeQ5Npl7j1pz51S-28" value="" style="strokeWidth=2;html=1;shape=mxgraph.flowchart.database;whiteSpace=wrap;" parent="1" vertex="1">
          <mxGeometry x="895" y="410" width="60" height="60" as="geometry" />
        </mxCell>
        <mxCell id="BzquAZeQ5Npl7j1pz51S-29" value="" style="endArrow=none;dashed=1;html=1;dashPattern=1 3;strokeWidth=2;rounded=0;entryX=0.5;entryY=1;entryDx=0;entryDy=0;exitX=0.5;exitY=0;exitDx=0;exitDy=0;exitPerimeter=0;" parent="1" source="BzquAZeQ5Npl7j1pz51S-28" target="BzquAZeQ5Npl7j1pz51S-23" edge="1">
          <mxGeometry width="50" height="50" relative="1" as="geometry">
            <mxPoint x="840" y="350" as="sourcePoint" />
            <mxPoint x="890" y="300" as="targetPoint" />
          </mxGeometry>
        </mxCell>
        <mxCell id="BzquAZeQ5Npl7j1pz51S-30" value="Account DB" style="text;html=1;align=center;verticalAlign=middle;resizable=0;points=[];autosize=1;strokeColor=none;fillColor=none;fontSize=16;fontStyle=1" parent="1" vertex="1">
          <mxGeometry x="870" y="480" width="110" height="30" as="geometry" />
        </mxCell>
        <mxCell id="BzquAZeQ5Npl7j1pz51S-32" value="" style="sketch=0;pointerEvents=1;shadow=0;dashed=0;html=1;strokeColor=none;fillColor=#04339f;labelPosition=center;verticalLabelPosition=bottom;verticalAlign=top;align=center;outlineConnect=0;shape=mxgraph.veeam2.letter;fontSize=13;aspect=fixed;" parent="1" vertex="1">
          <mxGeometry x="160" y="224" width="45" height="32.07" as="geometry" />
        </mxCell>
        <mxCell id="OE4ZB3P57YwNuR8nRzsz-2" value="Other brokers will be added later" style="text;html=1;align=center;verticalAlign=middle;whiteSpace=wrap;rounded=0;fontSize=15;fontStyle=3" vertex="1" parent="1">
          <mxGeometry x="352" y="360" width="185" height="20" as="geometry" />
        </mxCell>
        <mxCell id="OE4ZB3P57YwNuR8nRzsz-8" value="CONSUMER actually does not work - wip on fix" style="text;html=1;align=center;verticalAlign=middle;whiteSpace=wrap;rounded=0;fontSize=20;fontStyle=1;fontColor=#f00000;" vertex="1" parent="1">
          <mxGeometry x="630" y="300" width="200" height="110" as="geometry" />
        </mxCell>
        <mxCell id="OE4ZB3P57YwNuR8nRzsz-9" value="" style="image;sketch=0;aspect=fixed;html=1;points=[];align=center;fontSize=12;image=img/lib/mscae/Docker.svg;" vertex="1" parent="1">
          <mxGeometry x="-60" y="150" width="70" height="57.4" as="geometry" />
        </mxCell>
        <mxCell id="OE4ZB3P57YwNuR8nRzsz-10" value="" style="image;sketch=0;aspect=fixed;html=1;points=[];align=center;fontSize=12;image=img/lib/mscae/Docker.svg;" vertex="1" parent="1">
          <mxGeometry x="270" y="25" width="70" height="57.4" as="geometry" />
        </mxCell>
        <mxCell id="OE4ZB3P57YwNuR8nRzsz-11" value="" style="image;sketch=0;aspect=fixed;html=1;points=[];align=center;fontSize=12;image=img/lib/mscae/Docker.svg;" vertex="1" parent="1">
          <mxGeometry x="890" y="150" width="70" height="57.4" as="geometry" />
        </mxCell>
        <mxCell id="OE4ZB3P57YwNuR8nRzsz-13" value="Zookeeper&lt;div style=&quot;font-size: 21px;&quot;&gt;Kafka broker 1&lt;/div&gt;&lt;div style=&quot;font-size: 21px;&quot;&gt;Kafka UI&lt;/div&gt;" style="text;html=1;align=center;verticalAlign=middle;whiteSpace=wrap;rounded=0;fontSize=21;fontColor=#e2c1c1;" vertex="1" parent="1">
          <mxGeometry x="345" y="10" width="200" height="87.4" as="geometry" />
        </mxCell>
        <mxCell id="OE4ZB3P57YwNuR8nRzsz-14" value="" style="image;sketch=0;aspect=fixed;html=1;points=[];align=center;fontSize=12;image=img/lib/mscae/Docker.svg;" vertex="1" parent="1">
          <mxGeometry x="990" y="411.3" width="70" height="57.4" as="geometry" />
        </mxCell>
        <mxCell id="OE4ZB3P57YwNuR8nRzsz-15" value="MSSQL" style="text;html=1;align=center;verticalAlign=middle;whiteSpace=wrap;rounded=0;fontSize=16;fontStyle=1" vertex="1" parent="1">
          <mxGeometry x="1000" y="480" width="60" height="30" as="geometry" />
        </mxCell>
      </root>
    </mxGraphModel>
  </diagram>
</mxfile>
